<svg width="258" height="59" viewBox="0 0 258 59" fill="none" xmlns="http://www.w3.org/2000/svg">
<path d="M33.4942 54C31.9671 53.3232 31.5079 52.1387 31.5399 50.5206C31.6253 46.248 31.5933 41.9754 31.5719 37.7028C31.5613 35.8203 30.5467 34.7627 28.9021 34.7945C27.3536 34.8262 26.4459 35.8732 26.3818 37.7028C26.3712 38.1152 26.3818 38.5277 26.3818 38.9402C26.3818 42.8003 26.4032 46.6604 26.3925 50.5206C26.3818 52.5511 25.41 53.7145 23.7975 53.651C22.281 53.5981 21.3412 52.4136 21.3412 50.5206C21.3412 45.476 21.3626 40.4313 21.3626 35.3867C21.3626 34.8791 21.3946 34.3397 21.2665 33.8532C20.9034 32.5418 19.9743 31.8861 18.5967 31.9707C17.2831 32.0554 16.4608 32.7745 16.29 34.0542C16.1618 35.0166 16.2473 36.0107 16.1939 36.9836C16.0977 38.6229 15.0085 39.7439 13.5988 39.7016C12.2425 39.6593 11.2387 38.5594 11.1746 36.9836C11.1319 36.1059 11.196 35.2387 11.1639 34.3609C11.0999 32.6899 10.1067 31.6006 8.67569 31.5689C7.10584 31.5371 6.102 32.5736 6.01656 34.3397C6.00588 34.5935 6.02724 34.8579 5.98452 35.1117C5.76026 36.4549 4.69234 37.3432 3.38947 37.2903C2.07593 37.2375 1.06141 36.2962 1.04005 34.9002C0.986651 31.9707 0.986651 29.0307 1.04005 26.1012C1.06141 24.6841 2.20408 23.6265 3.49627 23.6265C4.74574 23.6265 5.80298 24.5995 5.98452 25.9532C6.02724 26.3127 5.98453 26.6723 6.01656 27.0319C6.14471 28.4385 7.19128 29.3903 8.60093 29.3797C9.98923 29.3691 11.0892 28.4067 11.1426 27.0002C11.2173 25.308 11.1639 23.6053 11.1853 21.9027C11.2067 20.1365 12.2212 18.9309 13.6415 18.9097C15.1153 18.8886 16.1084 20.0202 16.1832 21.8075C16.2045 22.368 16.1832 22.9391 16.1939 23.5102C16.2259 25.5196 17.1763 26.6829 18.7782 26.6935C20.3908 26.704 21.384 25.5196 21.384 23.5419C21.3946 20.5067 21.3626 17.4714 21.4053 14.4362C21.4267 12.522 22.8684 11.2952 24.5023 11.7711C25.8265 12.1624 26.3818 13.1248 26.3712 14.4573C26.3605 16.9744 26.3605 19.502 26.3712 22.019C26.3818 24.2293 27.3536 25.4878 29.0196 25.4667C30.6642 25.4455 31.5719 24.2716 31.5719 22.093C31.5826 15.9697 31.5826 9.84632 31.5826 3.72297C31.5826 3.36339 31.5719 3.00382 31.5826 2.64424C31.668 1.03673 32.6185 0.0214629 34.0281 0.000311481C35.5232 -0.02084 36.5271 1.03673 36.5271 2.71827C36.5484 7.96384 36.5484 13.22 36.5591 18.4655C36.5591 18.7194 36.5378 18.9838 36.5591 19.2376C36.6873 20.6759 37.6804 21.6488 39.0687 21.6806C40.5318 21.7229 41.6424 20.7499 41.7065 19.227C41.7919 16.9109 41.7492 14.5948 41.7813 12.2787C41.8133 10.3963 42.8278 9.22235 44.3549 9.26465C45.818 9.30695 46.7685 10.4597 46.7791 12.2787C46.8005 15.6207 46.7791 18.9732 46.8112 22.3151C46.8325 24.2399 47.783 25.308 49.3849 25.2975C50.9867 25.2869 51.8838 24.2082 51.9265 22.2728C51.9372 21.9132 51.9158 21.5537 51.9586 21.1941C52.1401 19.7346 53.176 18.7722 54.5216 18.804C55.8992 18.8357 56.9137 19.7981 56.9458 21.2998C57.0098 24.0284 56.9885 26.7569 56.9885 29.4855C56.9885 30.9766 57.0205 32.4678 56.9778 33.959C56.9351 35.6723 55.9739 36.7087 54.4895 36.7193C52.9304 36.7404 51.9479 35.6617 51.9052 33.8744C51.8838 33.0495 51.9372 32.2246 51.8945 31.4102C51.8197 29.8344 50.8372 28.8826 49.3421 28.8932C47.8471 28.9038 46.8432 29.845 46.8325 31.442C46.8005 35.1963 46.8325 38.9507 46.8325 42.7157C46.8325 43.181 46.8539 43.6464 46.7791 44.1011C46.5442 45.4231 45.4229 46.3537 44.152 46.2586C42.7851 46.1528 41.8881 45.3808 41.7813 44.0271C41.6531 42.4407 41.7279 40.8438 41.7172 39.2469C41.7065 37.1846 40.8201 36.0741 39.1755 36.0636C37.4989 36.053 36.5805 37.1423 36.5805 39.194C36.5698 42.9484 36.5271 46.7133 36.6232 50.4677C36.6659 52.0858 36.1853 53.2597 34.7116 54C34.3272 54 33.9107 54 33.4942 54Z" fill="url(#paint0_linear)"/>
<path d="M76.946 6.264L83.666 27.684L90.344 6.264H99.122L88.958 36H78.332L68.168 6.264H76.946ZM113.365 5.802C116.165 5.802 118.713 6.46 121.009 7.776C123.333 9.064 125.153 10.87 126.469 13.194C127.813 15.518 128.485 18.136 128.485 21.048C128.485 23.96 127.813 26.578 126.469 28.902C125.125 31.226 123.291 33.046 120.967 34.362C118.671 35.65 116.137 36.294 113.365 36.294C110.593 36.294 108.045 35.65 105.721 34.362C103.397 33.046 101.563 31.226 100.219 28.902C98.8749 26.578 98.2029 23.96 98.2029 21.048C98.2029 18.136 98.8749 15.518 100.219 13.194C101.563 10.87 103.397 9.064 105.721 7.776C108.045 6.46 110.593 5.802 113.365 5.802ZM113.365 13.446C111.265 13.446 109.613 14.132 108.409 15.504C107.205 16.848 106.603 18.696 106.603 21.048C106.603 23.344 107.205 25.178 108.409 26.55C109.613 27.922 111.265 28.608 113.365 28.608C115.437 28.608 117.075 27.922 118.279 26.55C119.483 25.178 120.085 23.344 120.085 21.048C120.085 18.696 119.483 16.848 118.279 15.504C117.103 14.132 115.465 13.446 113.365 13.446ZM156.796 6.264L146.296 26.55V36H138.064V26.55L127.564 6.264H137.014L142.264 17.604L147.472 6.264H156.796ZM170.45 5.97C172.998 5.97 175.266 6.446 177.254 7.398C179.27 8.322 180.908 9.652 182.168 11.388C183.428 13.096 184.282 15.084 184.73 17.352H176.036C175.56 16.176 174.818 15.266 173.81 14.622C172.802 13.95 171.64 13.614 170.324 13.614C168.504 13.614 167.034 14.3 165.914 15.672C164.794 17.016 164.234 18.822 164.234 21.09C164.234 23.358 164.794 25.178 165.914 26.55C167.034 27.922 168.504 28.608 170.324 28.608C171.64 28.608 172.802 28.272 173.81 27.6C174.818 26.928 175.56 26.004 176.036 24.828H184.73C184.058 28.3 182.462 31.072 179.942 33.144C177.45 35.188 174.286 36.21 170.45 36.21C167.51 36.21 164.934 35.58 162.722 34.32C160.538 33.032 158.844 31.24 157.64 28.944C156.464 26.648 155.876 24.03 155.876 21.09C155.876 18.15 156.464 15.532 157.64 13.236C158.844 10.94 160.538 9.162 162.722 7.902C164.934 6.614 167.51 5.97 170.45 5.97ZM194.175 12.858V17.772H203.793V24.03H194.175V29.406H205.053V36H185.901V6.264H205.053V12.858H194.175ZM220.631 5.802C223.431 5.802 225.979 6.46 228.275 7.776C230.599 9.064 232.419 10.87 233.735 13.194C235.079 15.518 235.751 18.136 235.751 21.048C235.751 23.96 235.079 26.578 233.735 28.902C232.391 31.226 230.557 33.046 228.233 34.362C225.937 35.65 223.403 36.294 220.631 36.294C217.859 36.294 215.311 35.65 212.987 34.362C210.663 33.046 208.829 31.226 207.485 28.902C206.141 26.578 205.469 23.96 205.469 21.048C205.469 18.136 206.141 15.518 207.485 13.194C208.829 10.87 210.663 9.064 212.987 7.776C215.311 6.46 217.859 5.802 220.631 5.802ZM220.631 13.446C218.531 13.446 216.879 14.132 215.675 15.504C214.471 16.848 213.869 18.696 213.869 21.048C213.869 23.344 214.471 25.178 215.675 26.55C216.879 27.922 218.531 28.608 220.631 28.608C222.703 28.608 224.341 27.922 225.545 26.55C226.749 25.178 227.351 23.344 227.351 21.048C227.351 18.696 226.749 16.848 225.545 15.504C224.369 14.132 222.731 13.446 220.631 13.446Z" fill="#000000"/>
<path d="M76.946 6.264L83.666 27.684L90.344 6.264H99.122L88.958 36H78.332L68.168 6.264H76.946ZM113.365 5.802C116.165 5.802 118.713 6.46 121.009 7.776C123.333 9.064 125.153 10.87 126.469 13.194C127.813 15.518 128.485 18.136 128.485 21.048C128.485 23.96 127.813 26.578 126.469 28.902C125.125 31.226 123.291 33.046 120.967 34.362C118.671 35.65 116.137 36.294 113.365 36.294C110.593 36.294 108.045 35.65 105.721 34.362C103.397 33.046 101.563 31.226 100.219 28.902C98.8749 26.578 98.2029 23.96 98.2029 21.048C98.2029 18.136 98.8749 15.518 100.219 13.194C101.563 10.87 103.397 9.064 105.721 7.776C108.045 6.46 110.593 5.802 113.365 5.802ZM113.365 13.446C111.265 13.446 109.613 14.132 108.409 15.504C107.205 16.848 106.603 18.696 106.603 21.048C106.603 23.344 107.205 25.178 108.409 26.55C109.613 27.922 111.265 28.608 113.365 28.608C115.437 28.608 117.075 27.922 118.279 26.55C119.483 25.178 120.085 23.344 120.085 21.048C120.085 18.696 119.483 16.848 118.279 15.504C117.103 14.132 115.465 13.446 113.365 13.446ZM156.796 6.264L146.296 26.55V36H138.064V26.55L127.564 6.264H137.014L142.264 17.604L147.472 6.264H156.796ZM170.45 5.97C172.998 5.97 175.266 6.446 177.254 7.398C179.27 8.322 180.908 9.652 182.168 11.388C183.428 13.096 184.282 15.084 184.73 17.352H176.036C175.56 16.176 174.818 15.266 173.81 14.622C172.802 13.95 171.64 13.614 170.324 13.614C168.504 13.614 167.034 14.3 165.914 15.672C164.794 17.016 164.234 18.822 164.234 21.09C164.234 23.358 164.794 25.178 165.914 26.55C167.034 27.922 168.504 28.608 170.324 28.608C171.64 28.608 172.802 28.272 173.81 27.6C174.818 26.928 175.56 26.004 176.036 24.828H184.73C184.058 28.3 182.462 31.072 179.942 33.144C177.45 35.188 174.286 36.21 170.45 36.21C167.51 36.21 164.934 35.58 162.722 34.32C160.538 33.032 158.844 31.24 157.64 28.944C156.464 26.648 155.876 24.03 155.876 21.09C155.876 18.15 156.464 15.532 157.64 13.236C158.844 10.94 160.538 9.162 162.722 7.902C164.934 6.614 167.51 5.97 170.45 5.97ZM194.175 12.858V17.772H203.793V24.03H194.175V29.406H205.053V36H185.901V6.264H205.053V12.858H194.175ZM220.631 5.802C223.431 5.802 225.979 6.46 228.275 7.776C230.599 9.064 232.419 10.87 233.735 13.194C235.079 15.518 235.751 18.136 235.751 21.048C235.751 23.96 235.079 26.578 233.735 28.902C232.391 31.226 230.557 33.046 228.233 34.362C225.937 35.65 223.403 36.294 220.631 36.294C217.859 36.294 215.311 35.65 212.987 34.362C210.663 33.046 208.829 31.226 207.485 28.902C206.141 26.578 205.469 23.96 205.469 21.048C205.469 18.136 206.141 15.518 207.485 13.194C208.829 10.87 210.663 9.064 212.987 7.776C215.311 6.46 217.859 5.802 220.631 5.802ZM220.631 13.446C218.531 13.446 216.879 14.132 215.675 15.504C214.471 16.848 213.869 18.696 213.869 21.048C213.869 23.344 214.471 25.178 215.675 26.55C216.879 27.922 218.531 28.608 220.631 28.608C222.703 28.608 224.341 27.922 225.545 26.55C226.749 25.178 227.351 23.344 227.351 21.048C227.351 18.696 226.749 16.848 225.545 15.504C224.369 14.132 222.731 13.446 220.631 13.446Z" fill="url(#paint1_linear)"/>
<path d="M75.22 53L73.69 50.33H73.3V53H71.59V45.93H74.51C75.07 45.93 75.5433 46.0267 75.93 46.22C76.3167 46.4133 76.6067 46.68 76.8 47.02C76.9933 47.3533 77.09 47.7367 77.09 48.17C77.09 48.6833 76.9467 49.12 76.66 49.48C76.38 49.84 75.97 50.0867 75.43 50.22L77.11 53H75.22ZM73.3 49.16H74.36C74.7 49.16 74.95 49.0867 75.11 48.94C75.27 48.7867 75.35 48.5633 75.35 48.27C75.35 47.99 75.2667 47.77 75.1 47.61C74.94 47.45 74.6933 47.37 74.36 47.37H73.3V49.16ZM82.1574 47.29V48.77H84.5474V50.06H82.1574V51.63H84.8474V53H80.4474V45.93H84.8474V47.29H82.1574ZM91.5485 45.86C92.4485 45.86 93.1918 46.0967 93.7785 46.57C94.3718 47.0433 94.7552 47.6833 94.9285 48.49H93.1185C92.9852 48.1633 92.7785 47.9067 92.4985 47.72C92.2252 47.5333 91.8985 47.44 91.5185 47.44C91.0185 47.44 90.6152 47.6233 90.3085 47.99C90.0018 48.3567 89.8485 48.8467 89.8485 49.46C89.8485 50.0733 90.0018 50.5633 90.3085 50.93C90.6152 51.29 91.0185 51.47 91.5185 51.47C91.8985 51.47 92.2252 51.3767 92.4985 51.19C92.7785 51.0033 92.9852 50.75 93.1185 50.43H94.9285C94.7552 51.23 94.3718 51.87 93.7785 52.35C93.1918 52.8233 92.4485 53.06 91.5485 53.06C90.8618 53.06 90.2585 52.91 89.7385 52.61C89.2185 52.3033 88.8152 51.8767 88.5285 51.33C88.2485 50.7833 88.1085 50.16 88.1085 49.46C88.1085 48.76 88.2485 48.1367 88.5285 47.59C88.8152 47.0433 89.2185 46.62 89.7385 46.32C90.2585 46.0133 90.8618 45.86 91.5485 45.86ZM101.747 45.82C102.414 45.82 103.017 45.9767 103.557 46.29C104.104 46.5967 104.534 47.0267 104.847 47.58C105.16 48.1267 105.317 48.7467 105.317 49.44C105.317 50.1333 105.157 50.7567 104.837 51.31C104.524 51.8633 104.094 52.2967 103.547 52.61C103.007 52.9167 102.407 53.07 101.747 53.07C101.087 53.07 100.484 52.9167 99.9369 52.61C99.3969 52.2967 98.9669 51.8633 98.6469 51.31C98.3335 50.7567 98.1769 50.1333 98.1769 49.44C98.1769 48.7467 98.3335 48.1267 98.6469 47.58C98.9669 47.0267 99.3969 46.5967 99.9369 46.29C100.484 45.9767 101.087 45.82 101.747 45.82ZM101.747 47.41C101.187 47.41 100.74 47.5933 100.407 47.96C100.08 48.32 99.9169 48.8133 99.9169 49.44C99.9169 50.06 100.08 50.5533 100.407 50.92C100.74 51.2867 101.187 51.47 101.747 51.47C102.3 51.47 102.744 51.2867 103.077 50.92C103.41 50.5533 103.577 50.06 103.577 49.44C103.577 48.82 103.41 48.3267 103.077 47.96C102.75 47.5933 102.307 47.41 101.747 47.41ZM112.408 53L110.878 50.33H110.488V53H108.778V45.93H111.698C112.258 45.93 112.731 46.0267 113.118 46.22C113.504 46.4133 113.794 46.68 113.988 47.02C114.181 47.3533 114.278 47.7367 114.278 48.17C114.278 48.6833 114.134 49.12 113.848 49.48C113.568 49.84 113.158 50.0867 112.618 50.22L114.298 53H112.408ZM110.488 49.16H111.548C111.888 49.16 112.138 49.0867 112.298 48.94C112.458 48.7867 112.538 48.5633 112.538 48.27C112.538 47.99 112.454 47.77 112.288 47.61C112.128 47.45 111.881 47.37 111.548 47.37H110.488V49.16ZM123.995 49.45C123.995 50.1433 123.845 50.76 123.545 51.3C123.252 51.8333 122.825 52.25 122.265 52.55C121.712 52.85 121.058 53 120.305 53H117.635V45.93H120.305C121.065 45.93 121.722 46.0767 122.275 46.37C122.828 46.6633 123.252 47.0767 123.545 47.61C123.845 48.1433 123.995 48.7567 123.995 49.45ZM120.155 51.47C120.822 51.47 121.338 51.2933 121.705 50.94C122.078 50.5867 122.265 50.09 122.265 49.45C122.265 48.81 122.078 48.3133 121.705 47.96C121.338 47.6067 120.822 47.43 120.155 47.43H119.345V51.47H120.155ZM129.179 45.93V53H127.469V45.93H129.179ZM139.14 53H137.43L134.57 48.66V53H132.86V45.93H134.57L137.43 50.31V45.93H139.14V53ZM146.13 45.86C147.017 45.86 147.747 46.0767 148.32 46.51C148.894 46.9433 149.25 47.53 149.39 48.27H147.58C147.46 48.0167 147.277 47.8167 147.03 47.67C146.784 47.5167 146.487 47.44 146.14 47.44C145.6 47.44 145.167 47.6233 144.84 47.99C144.514 48.35 144.35 48.84 144.35 49.46C144.35 50.1333 144.52 50.65 144.86 51.01C145.207 51.37 145.697 51.55 146.33 51.55C146.737 51.55 147.094 51.44 147.4 51.22C147.707 50.9933 147.924 50.6733 148.05 50.26H145.89V49.03H149.48V50.72C149.347 51.1333 149.134 51.5167 148.84 51.87C148.547 52.2233 148.17 52.51 147.71 52.73C147.257 52.95 146.737 53.06 146.15 53.06C145.437 53.06 144.814 52.91 144.28 52.61C143.747 52.3033 143.334 51.8767 143.04 51.33C142.754 50.7833 142.61 50.16 142.61 49.46C142.61 48.76 142.754 48.1367 143.04 47.59C143.334 47.0433 143.744 46.62 144.27 46.32C144.804 46.0133 145.424 45.86 146.13 45.86ZM162.52 51.01C162.52 51.3833 162.423 51.7267 162.23 52.04C162.043 52.3533 161.763 52.6033 161.39 52.79C161.023 52.9767 160.576 53.07 160.05 53.07C159.256 53.07 158.603 52.8767 158.09 52.49C157.576 52.1033 157.296 51.5633 157.25 50.87H159.07C159.096 51.1367 159.19 51.3467 159.35 51.5C159.516 51.6533 159.726 51.73 159.98 51.73C160.2 51.73 160.373 51.67 160.5 51.55C160.626 51.43 160.69 51.27 160.69 51.07C160.69 50.89 160.63 50.74 160.51 50.62C160.396 50.5 160.253 50.4033 160.08 50.33C159.906 50.25 159.666 50.1567 159.36 50.05C158.913 49.8967 158.546 49.75 158.26 49.61C157.98 49.4633 157.736 49.25 157.53 48.97C157.33 48.6833 157.23 48.3133 157.23 47.86C157.23 47.44 157.336 47.0767 157.55 46.77C157.763 46.4633 158.056 46.23 158.43 46.07C158.81 45.9033 159.243 45.82 159.73 45.82C160.516 45.82 161.14 46.0067 161.6 46.38C162.066 46.7533 162.33 47.2667 162.39 47.92H160.54C160.506 47.6867 160.42 47.5033 160.28 47.37C160.146 47.23 159.963 47.16 159.73 47.16C159.53 47.16 159.366 47.2133 159.24 47.32C159.12 47.4267 159.06 47.5833 159.06 47.79C159.06 47.9567 159.113 48.1 159.22 48.22C159.333 48.3333 159.473 48.4267 159.64 48.5C159.806 48.5733 160.046 48.6667 160.36 48.78C160.813 48.9333 161.183 49.0867 161.47 49.24C161.756 49.3867 162.003 49.6033 162.21 49.89C162.416 50.1767 162.52 50.55 162.52 51.01ZM171.045 45.93V47.29H169.125V53H167.405V47.29H165.505V45.93H171.045ZM175.926 45.93V50.01C175.926 50.4767 176.029 50.8333 176.236 51.08C176.449 51.3267 176.756 51.45 177.156 51.45C177.556 51.45 177.859 51.3267 178.066 51.08C178.279 50.8333 178.386 50.4767 178.386 50.01V45.93H180.096V50.01C180.096 50.6767 179.966 51.24 179.706 51.7C179.446 52.1533 179.089 52.4967 178.636 52.73C178.189 52.9567 177.682 53.07 177.116 53.07C176.549 53.07 176.049 52.9567 175.616 52.73C175.182 52.5033 174.842 52.16 174.596 51.7C174.349 51.24 174.226 50.6767 174.226 50.01V45.93H175.926ZM190.098 49.45C190.098 50.1433 189.948 50.76 189.648 51.3C189.355 51.8333 188.928 52.25 188.368 52.55C187.815 52.85 187.162 53 186.408 53H183.738V45.93H186.408C187.168 45.93 187.825 46.0767 188.378 46.37C188.932 46.6633 189.355 47.0767 189.648 47.61C189.948 48.1433 190.098 48.7567 190.098 49.45ZM186.258 51.47C186.925 51.47 187.442 51.2933 187.808 50.94C188.182 50.5867 188.368 50.09 188.368 49.45C188.368 48.81 188.182 48.3133 187.808 47.96C187.442 47.6067 186.925 47.43 186.258 47.43H185.448V51.47H186.258ZM195.282 45.93V53H193.572V45.93H195.282ZM202.323 45.82C202.99 45.82 203.593 45.9767 204.133 46.29C204.68 46.5967 205.11 47.0267 205.423 47.58C205.736 48.1267 205.893 48.7467 205.893 49.44C205.893 50.1333 205.733 50.7567 205.413 51.31C205.1 51.8633 204.67 52.2967 204.123 52.61C203.583 52.9167 202.983 53.07 202.323 53.07C201.663 53.07 201.06 52.9167 200.513 52.61C199.973 52.2967 199.543 51.8633 199.223 51.31C198.91 50.7567 198.753 50.1333 198.753 49.44C198.753 48.7467 198.91 48.1267 199.223 47.58C199.543 47.0267 199.973 46.5967 200.513 46.29C201.06 45.9767 201.663 45.82 202.323 45.82ZM202.323 47.41C201.763 47.41 201.316 47.5933 200.983 47.96C200.656 48.32 200.493 48.8133 200.493 49.44C200.493 50.06 200.656 50.5533 200.983 50.92C201.316 51.2867 201.763 51.47 202.323 51.47C202.876 51.47 203.32 51.2867 203.653 50.92C203.986 50.5533 204.153 50.06 204.153 49.44C204.153 48.82 203.986 48.3267 203.653 47.96C203.326 47.5933 202.883 47.41 202.323 47.41Z" fill="#000000"/>
<defs>
<linearGradient id="paint0_linear" x1="57.1273" y1="28.8015" x2="0.997337" y2="28.8015" gradientUnits="userSpaceOnUse">
<stop stop-color="#FF6600"/>
<stop offset="1" stop-color="#7B16D9"/>
</linearGradient>
<linearGradient id="paint1_linear" x1="163" y1="2" x2="163" y2="45" gradientUnits="userSpaceOnUse">
<stop stop-color="white"/>
<stop offset="1" stop-color="white" stop-opacity="0"/>
</linearGradient>
</defs>
</svg>
